<?xml version="1.0" standalone="no"?>
<!DOCTYPE svg PUBLIC "-//W3C//DTD SVG 20010904//EN"
 "http://www.w3.org/TR/2001/REC-SVG-20010904/DTD/svg10.dtd">
<svg version="1.0" xmlns="http://www.w3.org/2000/svg"
 width="1200.000000pt" height="1200.000000pt" viewBox="0 0 1200.000000 1200.000000"
 preserveAspectRatio="xMidYMid meet">
<metadata>
Created by potrace 1.11, written by Peter Selinger 2001-2013
</metadata>
<g transform="translate(0.000000,1200.000000) scale(0.100000,-0.100000)"
fill="#000000" stroke="none">
<path d="M1387 7595 c-7 -21 0 -2074 7 -2135 9 -75 31 -183 53 -255 20 -65
119 -273 147 -306 11 -14 28 -37 36 -50 32 -50 188 -198 260 -246 108 -72 265
-145 336 -156 10 -1 24 -5 29 -9 27 -16 229 -40 330 -39 62 1 150 8 190 15 17
3 42 8 57 11 15 3 40 10 55 16 16 6 28 9 28 8 0 -15 268 104 301 134 31 28 44
37 51 37 4 0 22 13 38 28 17 16 47 43 68 61 l37 33 -1 -98 c0 -55 0 -120 0
-145 l1 -46 230 -1 c127 0 231 3 231 7 1 3 3 711 3 1574 l2 1567 -25 1 c-32 1
-434 1 -441 0 -3 -1 -5 -452 -6 -1003 0 -972 -3 -1076 -23 -1145 -5 -18 -8
-33 -6 -33 2 0 -2 -18 -10 -40 -8 -22 -12 -40 -10 -40 7 0 -68 -146 -101 -196
-39 -59 -137 -157 -186 -188 -18 -11 -35 -23 -38 -26 -8 -9 -112 -57 -151 -69
-39 -13 -65 -19 -119 -29 -42 -8 -223 -7 -265 1 -16 3 -46 9 -65 12 -19 4 -47
13 -62 21 -15 8 -30 14 -33 14 -8 -2 -118 53 -131 65 -7 5 -25 19 -40 30 -116
82 -225 246 -269 405 -38 141 -40 197 -39 1223 l0 997 -20 0 c-223 6 -446 3
-449 -5z"/>
<path d="M4250 7602 l-25 -3 1 -1572 0 -1572 222 -1 c122 -1 223 1 224 5 1 3
2 63 3 134 1 70 4 129 7 132 3 3 19 -7 36 -23 16 -15 44 -39 62 -53 17 -13 37
-29 43 -34 16 -15 122 -78 173 -103 54 -27 214 -82 240 -82 11 0 24 -3 28 -7
7 -8 7 -8 136 -18 52 -4 96 -9 98 -10 2 -1 19 1 38 5 20 5 34 4 34 -2 0 -5 5
-6 11 -2 6 3 27 8 47 10 94 9 214 37 280 65 23 10 46 19 50 19 4 1 27 11 52
22 25 12 48 22 51 22 5 1 142 90 189 123 35 25 138 128 192 193 37 45 151 228
154 249 0 3 6 20 13 36 58 136 93 309 94 463 0 23 -3 45 -6 49 -4 3 -2 14 4
24 7 13 6 19 -1 19 -6 0 -9 4 -6 8 7 12 -19 165 -40 232 -9 30 -17 60 -18 65
-4 17 -49 117 -79 175 -79 149 -202 290 -345 394 -34 25 -66 46 -71 46 -5 0
-11 4 -13 8 -4 11 -168 95 -168 86 0 -3 -6 -2 -12 4 -14 11 -164 58 -213 66
-159 28 -374 26 -477 -5 -2 0 -14 -2 -28 -5 -143 -25 -371 -144 -493 -257 -26
-24 -49 -42 -51 -38 -2 3 -3 257 -3 564 0 306 -2 560 -6 563 -6 6 -381 11
-427 6z m1352 -1223 c332 -69 562 -297 633 -624 26 -119 13 -315 -27 -420 -25
-67 -51 -121 -66 -137 -8 -10 -12 -18 -8 -18 4 0 2 -6 -3 -12 -6 -7 -34 -42
-63 -78 -29 -36 -63 -73 -75 -83 -13 -10 -29 -24 -36 -31 -40 -39 -209 -132
-252 -139 -11 -1 -24 -5 -30 -8 -16 -10 -85 -22 -140 -25 -27 -1 -52 -3 -55
-4 -21 -8 -143 7 -213 25 -184 47 -375 185 -467 336 -17 29 -80 148 -79 152 0
1 -4 13 -9 27 -5 14 -17 66 -25 116 -19 110 -15 237 10 334 3 14 7 32 9 40 7
34 88 198 116 234 38 48 130 140 175 175 45 34 170 101 191 101 7 0 20 5 30
10 56 33 283 50 384 29z"/>
<path d="M7940 6787 c-3 -2 -27 -7 -55 -10 -27 -3 -79 -13 -115 -22 -36 -9
-72 -18 -80 -20 -62 -13 -298 -139 -327 -175 -7 -8 -13 -12 -13 -7 0 4 -8 -1
-18 -10 -10 -10 -39 -36 -64 -59 -40 -35 -70 -68 -149 -162 -10 -12 -19 -26
-19 -31 0 -5 -7 -14 -15 -21 -9 -7 -23 -29 -32 -49 -9 -20 -20 -38 -23 -41 -6
-5 -43 -79 -45 -90 -1 -3 -9 -23 -19 -45 -52 -119 -83 -298 -81 -460 3 -186
33 -332 95 -470 15 -33 30 -67 34 -75 3 -8 16 -31 29 -51 12 -19 31 -50 42
-67 10 -18 23 -32 27 -32 4 0 8 -4 8 -10 0 -15 35 -55 129 -147 47 -46 90 -83
97 -83 7 0 14 -4 16 -9 4 -12 101 -72 173 -108 89 -44 242 -95 328 -109 111
-18 297 -23 404 -11 51 6 220 46 258 61 6 2 21 7 35 12 45 13 193 95 260 142
62 44 240 211 240 226 0 4 7 14 16 23 8 9 12 19 7 23 -4 3 -60 44 -123 91 -63
46 -116 87 -118 92 -2 4 -10 7 -18 7 -8 0 -14 4 -14 8 0 5 -11 15 -25 22 -23
13 -27 11 -57 -26 -45 -53 -117 -122 -150 -142 -16 -9 -28 -20 -28 -24 0 -4
-4 -8 -10 -8 -5 0 -32 -13 -60 -30 -27 -16 -50 -27 -50 -24 0 4 -6 2 -13 -4
-7 -6 -46 -20 -87 -32 -129 -38 -380 -33 -475 9 -11 5 -40 17 -65 27 -214 88
-389 307 -444 557 -6 27 -6 27 51 27 32 1 452 2 933 3 l875 2 -1 135 c-2 229
-32 377 -112 550 -14 30 -25 58 -24 63 1 4 -2 7 -7 7 -5 0 -11 8 -15 18 -15
45 -103 160 -181 237 -66 65 -133 125 -140 125 -2 0 -33 18 -69 40 -36 22 -70
40 -76 40 -5 0 -10 4 -10 9 0 5 -10 11 -22 14 -13 3 -57 18 -98 33 -81 28
-102 34 -140 39 -14 2 -36 7 -50 10 -31 9 -313 19 -320 12z m221 -400 c183
-23 374 -149 484 -322 35 -55 91 -186 97 -225 l3 -25 -697 -2 c-384 -1 -698
-1 -698 0 1 32 71 207 82 207 5 0 8 6 8 13 0 31 183 237 210 237 5 0 15 6 22
13 14 12 123 73 123 68 0 -1 13 3 29 9 77 29 223 41 337 27z"/>
<path d="M10397 6764 c-1 -1 -24 -5 -51 -8 -67 -9 -163 -42 -208 -72 -21 -13
-40 -24 -43 -24 -4 0 -12 -6 -19 -12 -7 -7 -27 -24 -45 -38 -18 -14 -53 -52
-77 -85 l-44 -59 0 140 0 141 -220 0 c-122 0 -223 -4 -226 -8 -4 -6 -7 -1702
-4 -2235 l0 -51 225 -1 c162 0 225 3 226 12 1 6 2 324 4 706 1 382 5 709 9
725 17 73 29 111 54 164 33 69 34 71 103 142 103 105 205 140 404 140 l130 0
-1 207 c-1 114 -2 209 -3 212 -1 5 -209 8 -214 4z"/>
</g>
</svg>
